<svg width="19" height="19" viewBox="0 0 19 19" fill="none" xmlns="http://www.w3.org/2000/svg">
<path d="M12.7538 8.80399L2.30944 1.62794C1.48004 1.07259 0.799988 1.48004 0.799988 2.53419V16.4672C0.799988 17.5185 1.48004 17.9259 2.30944 17.3735L12.7538 10.1945C12.7538 10.1945 13.1583 9.90599 13.1583 9.50144C13.1583 9.09544 12.7538 8.80399 12.7538 8.80399ZM15.3 0.799988H16.75C17.5518 0.799988 18.2 0.869588 18.2 1.66999V17.33C18.2 18.1304 17.5518 18.2 16.75 18.2H15.3C14.4981 18.2 13.85 18.1304 13.85 17.33V1.66999C13.85 0.869588 14.4981 0.799988 15.3 0.799988Z" fill="#F6F6F6"/>
</svg>
