<svg width="23" height="23" viewBox="0 0 23 23" fill="none" xmlns="http://www.w3.org/2000/svg">
<path d="M4.25 0.625C3.28859 0.625 2.36656 1.00692 1.68674 1.68674C1.00692 2.36656 0.625 3.28859 0.625 4.25V18.75C0.625 19.7114 1.00692 20.6334 1.68674 21.3133C2.36656 21.9931 3.28859 22.375 4.25 22.375H10.2917C10.6121 22.375 10.9195 22.2477 11.1461 22.0211C11.3727 21.7945 11.5 21.4871 11.5 21.1667C11.5 20.8462 11.3727 20.5389 11.1461 20.3122C10.9195 20.0856 10.6121 19.9583 10.2917 19.9583H4.25C3.92953 19.9583 3.62219 19.831 3.39558 19.6044C3.16897 19.3778 3.04167 19.0705 3.04167 18.75V4.25C3.04167 3.92953 3.16897 3.62219 3.39558 3.39558C3.62219 3.16897 3.92953 3.04167 4.25 3.04167H10.2917C10.6121 3.04167 10.9195 2.91436 11.1461 2.68775C11.3727 2.46115 11.5 2.1538 11.5 1.83333C11.5 1.51286 11.3727 1.20552 11.1461 0.978913C10.9195 0.752306 10.6121 0.625 10.2917 0.625H4.25Z" fill="url(#paint0_linear_1_59)"/>
<path d="M15.479 5.8124C15.7056 5.58587 16.0129 5.45862 16.3333 5.45862C16.6537 5.45862 16.961 5.58587 17.1876 5.8124L22.021 10.6457C22.2475 10.8723 22.3747 11.1796 22.3747 11.5C22.3747 11.8204 22.2475 12.1277 22.021 12.3543L17.1876 17.1877C16.9597 17.4078 16.6545 17.5296 16.3377 17.5268C16.0209 17.524 15.7178 17.397 15.4938 17.1729C15.2697 16.9489 15.1426 16.6458 15.1399 16.329C15.1371 16.0122 15.2589 15.707 15.479 15.4791L18.2498 12.7084H9.08333C8.76286 12.7084 8.45552 12.5811 8.22891 12.3544C8.00231 12.1278 7.875 11.8205 7.875 11.5C7.875 11.1796 8.00231 10.8722 8.22891 10.6456C8.45552 10.419 8.76286 10.2917 9.08333 10.2917H18.2498L15.479 7.52098C15.2525 7.29439 15.1253 6.9871 15.1253 6.66669C15.1253 6.34629 15.2525 6.039 15.479 5.8124Z" fill="url(#paint1_linear_1_59)"/>
<defs>
<linearGradient id="paint0_linear_1_59" x1="6.0625" y1="0.625" x2="17.2607" y2="4.1682" gradientUnits="userSpaceOnUse">
<stop stop-color="#FF5353"/>
<stop offset="1" stop-color="#E91E1E"/>
</linearGradient>
<linearGradient id="paint1_linear_1_59" x1="15.1249" y1="5.45862" x2="25.5334" y2="13.3724" gradientUnits="userSpaceOnUse">
<stop stop-color="#FF5353"/>
<stop offset="1" stop-color="#E91E1E"/>
</linearGradient>
</defs>
</svg>
