<svg width="18" height="18" viewBox="0 0 18 18" fill="none" xmlns="http://www.w3.org/2000/svg">
<path d="M11.26 0.907513L11.1875 0.842513C11.0272 0.715977 10.8261 0.652693 10.6222 0.664675C10.4184 0.676658 10.226 0.763072 10.0817 0.907513L10.0167 0.980013C9.89021 1.14015 9.82696 1.34117 9.83894 1.54488C9.85092 1.74859 9.93731 1.94081 10.0817 2.08501L11.1642 3.16585H6.49919L6.29919 3.16918C4.7884 3.2206 3.35662 3.85675 2.30582 4.94346C1.25502 6.03018 0.667325 7.48251 0.666687 8.99418C0.666687 10.1983 1.03169 11.3175 1.65752 12.2433C1.78604 12.423 1.98068 12.5443 2.19861 12.5805C2.41654 12.6167 2.63992 12.5648 2.8196 12.4363C2.99929 12.3077 3.12056 12.1131 3.15674 11.8952C3.19292 11.6772 3.14104 11.4539 3.01252 11.2742L2.90002 11.0925C2.53117 10.4596 2.33581 9.74052 2.33369 9.00795C2.33156 8.27537 2.52273 7.5552 2.8879 6.92012C3.25307 6.28504 3.77932 5.75754 4.41352 5.39086C5.04773 5.02418 5.76744 4.8313 6.50002 4.83168H11.1625L10.0817 5.91251L10.0167 5.98501C9.88137 6.15142 9.8155 6.36362 9.8328 6.5774C9.8501 6.79118 9.94924 6.99003 10.1096 7.13251C10.2699 7.27499 10.479 7.3501 10.6933 7.34218C10.9077 7.33426 11.1107 7.24393 11.26 7.09001L13.765 4.58751L13.8292 4.51501C13.9557 4.35487 14.0189 4.15386 14.0069 3.95015C13.995 3.74643 13.9086 3.55422 13.7642 3.41001L11.26 0.907513ZM16.3225 5.71668C16.2158 5.57973 16.0689 5.47956 15.9025 5.43022C15.736 5.38087 15.5583 5.3848 15.3942 5.44147C15.23 5.49813 15.0877 5.60469 14.9872 5.74624C14.8866 5.88778 14.8328 6.05722 14.8334 6.23085C14.8334 6.40501 14.8867 6.56585 14.9767 6.69835C15.391 7.32601 15.6277 8.05417 15.6614 8.80551C15.6952 9.55685 15.5249 10.3033 15.1685 10.9656C14.8122 11.6279 14.2831 12.1814 13.6374 12.5671C12.9918 12.9529 12.2538 13.1566 11.5017 13.1567H6.84502L7.92336 12.0817L7.99252 12.0017C8.10601 11.8547 8.16716 11.674 8.16625 11.4883C8.16535 11.3026 8.10244 11.1225 7.98752 10.9767L7.92336 10.9033L7.84419 10.8333C7.697 10.7196 7.51602 10.6583 7.33 10.6592C7.14397 10.6601 6.96359 10.7232 6.81752 10.8383L6.74419 10.9033L4.24002 13.4058L4.17085 13.485C4.05716 13.6321 3.99589 13.8129 3.9968 13.9988C3.99771 14.1847 4.06073 14.3649 4.17585 14.5108L4.24002 14.5833L6.74419 17.0858L6.82335 17.1558C6.98424 17.2801 7.18501 17.3413 7.38786 17.3278C7.59071 17.3144 7.78165 17.2273 7.92474 17.0829C8.06782 16.9384 8.15318 16.7467 8.16474 16.5437C8.17631 16.3408 8.11328 16.1406 7.98752 15.9808L7.92336 15.9083L6.83669 14.8225H11.5L11.7 14.82C12.7423 14.7842 13.7559 14.4695 14.6352 13.9087C15.5145 13.3479 16.2273 12.5616 16.6993 11.6316C17.1713 10.7016 17.3852 9.66209 17.3188 8.62131C17.2524 7.58053 16.9081 6.57661 16.3217 5.71418V5.71668H16.3225Z" fill="#F6F6F6"/>
</svg>
