<svg width="24" height="26" viewBox="0 0 24 26" fill="none" xmlns="http://www.w3.org/2000/svg">
<path d="M5.25002 20.6838C7.9156 20.6838 10.0834 18.516 10.0834 15.8504V3.59189L20.9584 7.54556V16.5235C20.2271 16.0878 19.3928 15.8555 18.5417 15.8504C15.8761 15.8504 13.7084 18.0182 13.7084 20.6838C13.7084 23.3493 15.8761 25.5171 18.5417 25.5171C21.2073 25.5171 23.375 23.3493 23.375 20.6838V6.69973C23.3752 6.45181 23.299 6.20987 23.1567 6.00684C23.0144 5.80381 22.813 5.64956 22.5799 5.5651L9.28827 0.731768C9.1058 0.665064 8.90993 0.643386 8.7173 0.668576C8.52466 0.693766 8.34095 0.765079 8.18177 0.876458C8.02259 0.987836 7.89264 1.13599 7.80297 1.30833C7.7133 1.48068 7.66654 1.67212 7.66669 1.86639V11.6901C6.93548 11.2545 6.10115 11.0221 5.25002 11.0171C2.58444 11.0171 0.416687 13.1848 0.416687 15.8504C0.416687 18.516 2.58444 20.6838 5.25002 20.6838Z" fill="url(#paint0_linear_1_20)"/>
<defs>
<linearGradient id="paint0_linear_1_20" x1="11.8959" y1="0.658386" x2="31.2818" y2="11.9882" gradientUnits="userSpaceOnUse">
<stop stop-color="#FF5353"/>
<stop offset="1" stop-color="#E91E1E"/>
</linearGradient>
</defs>
</svg>
