<svg width="19" height="19" viewBox="0 0 19 19" fill="none" xmlns="http://www.w3.org/2000/svg">
<path d="M6.24621 8.80399L16.6906 1.62794C17.52 1.07259 18.2 1.48004 18.2 2.53419V16.4672C18.2 17.5185 17.52 17.9259 16.6906 17.3735L6.24621 10.1945C6.24621 10.1945 5.84166 9.90599 5.84166 9.50144C5.84166 9.09544 6.24621 8.80399 6.24621 8.80399ZM3.70001 0.799988H2.25001C1.44816 0.799988 0.800011 0.869588 0.800011 1.66999V17.33C0.800011 18.1304 1.44816 18.2 2.25001 18.2H3.70001C4.50186 18.2 5.15001 18.1304 5.15001 17.33V1.66999C5.15001 0.869588 4.50186 0.799988 3.70001 0.799988Z" fill="#F6F6F6"/>
</svg>
