<svg width="25" height="25" viewBox="0 0 25 25" fill="none" xmlns="http://www.w3.org/2000/svg">
<path d="M12.5 14.3125C13.501 14.3125 14.3125 13.501 14.3125 12.5C14.3125 11.499 13.501 10.6875 12.5 10.6875C11.499 10.6875 10.6875 11.499 10.6875 12.5C10.6875 13.501 11.499 14.3125 12.5 14.3125Z" fill="url(#paint0_linear_1_56)"/>
<path d="M24.4504 10.4701L23.4958 7.42508C23.3928 7.07316 23.2199 6.7456 22.9875 6.46195C22.7551 6.17829 22.4679 5.94434 22.1432 5.77406C21.8184 5.60378 21.4627 5.50066 21.0972 5.47084C20.7317 5.44102 20.3639 5.48512 20.0158 5.6005L19.605 5.73342C19.2832 5.8398 18.9404 5.8668 18.6058 5.81209C18.2713 5.75739 17.955 5.62261 17.6838 5.41925L17.5508 5.32258C17.2862 5.12003 17.0729 4.85813 16.928 4.55798C16.7832 4.25784 16.711 3.92786 16.7171 3.59467V3.25633C16.723 2.49753 16.4275 1.76741 15.8954 1.22633C15.6424 0.970711 15.3413 0.767602 15.0095 0.628669C14.6777 0.489737 14.3218 0.417717 13.9621 0.416748H10.8808C10.1416 0.426301 9.43598 0.727522 8.91773 1.25483C8.39947 1.78213 8.11051 2.49282 8.11376 3.23216V3.52217C8.1126 3.87291 8.03275 4.21892 7.88009 4.53471C7.72742 4.85049 7.50584 5.12799 7.23168 5.34675L7.0746 5.46758C6.77172 5.69671 6.41747 5.8484 6.04263 5.90947C5.66779 5.97054 5.28371 5.93914 4.92376 5.818C4.59318 5.7036 4.24282 5.65747 3.8939 5.68239C3.54497 5.70731 3.20473 5.80277 2.89376 5.963C2.56999 6.12369 2.28276 6.3493 2.04994 6.62577C1.81711 6.90225 1.64368 7.22369 1.54043 7.57008L0.549595 10.7117C0.319821 11.4201 0.378747 12.1904 0.713577 12.8556C1.04841 13.5207 1.63211 14.0269 2.33793 14.2642H2.53126C2.85686 14.3863 3.14909 14.5833 3.38423 14.8395C3.61938 15.0956 3.7908 15.4036 3.8846 15.7384L3.9571 15.9317C4.0918 16.3017 4.13684 16.6982 4.08853 17.0889C4.04022 17.4796 3.89993 17.8533 3.67918 18.1792C3.23236 18.7878 3.04389 19.5481 3.15477 20.2948C3.26565 21.0416 3.66691 21.7143 4.27126 22.1667L6.77251 24.0638C7.24612 24.4082 7.81825 24.5904 8.40376 24.5834C8.56047 24.5988 8.7183 24.5988 8.87501 24.5834C9.23764 24.5132 9.58216 24.3699 9.88755 24.1621C10.1929 23.9544 10.4528 23.6866 10.6513 23.3751L10.9292 22.9763C11.1241 22.6967 11.3821 22.4668 11.6822 22.3052C11.9824 22.1435 12.3163 22.0547 12.6571 22.0459C13.0142 22.0371 13.3678 22.1189 13.6847 22.2838C14.0017 22.4486 14.2717 22.691 14.4696 22.9884L14.6146 23.1938C14.8206 23.5004 15.0872 23.7616 15.398 23.9613C15.7088 24.161 16.0571 24.295 16.4216 24.355C16.7861 24.415 17.159 24.3997 17.5174 24.3102C17.8758 24.2206 18.212 24.0586 18.5054 23.8342L20.9583 21.9976C21.5383 21.5472 21.924 20.8919 22.0363 20.1662C22.1487 19.4405 21.9791 18.6994 21.5625 18.0947L21.2483 17.6355C21.0594 17.3436 20.9357 17.0144 20.8857 16.6703C20.8356 16.3262 20.8604 15.9754 20.9583 15.6417C21.0582 15.2846 21.2435 14.9572 21.4982 14.6877C21.7529 14.4182 22.0695 14.2148 22.4204 14.0951L22.6621 14.0105C23.3614 13.7678 23.9389 13.2628 24.2726 12.6021C24.6063 11.9415 24.6701 11.1769 24.4504 10.4701ZM12.5 16.7292C11.6636 16.7292 10.8459 16.4812 10.1504 16.0165C9.45493 15.5518 8.91287 14.8913 8.59277 14.1185C8.27268 13.3457 8.18892 12.4954 8.35211 11.675C8.51529 10.8546 8.91808 10.1011 9.50954 9.50961C10.101 8.91815 10.8546 8.51536 11.6749 8.35218C12.4953 8.18899 13.3457 8.27275 14.1184 8.59284C14.8912 8.91294 15.5517 9.455 16.0164 10.1505C16.4811 10.846 16.7292 11.6636 16.7292 12.5001C16.7292 13.6217 16.2836 14.6974 15.4905 15.4906C14.6974 16.2837 13.6217 16.7292 12.5 16.7292Z" fill="url(#paint1_linear_1_56)"/>
<defs>
<linearGradient id="paint0_linear_1_56" x1="12.5" y1="10.6875" x2="15.4322" y2="12.5431" gradientUnits="userSpaceOnUse">
<stop stop-color="#FF5353"/>
<stop offset="1" stop-color="#E91E1E"/>
</linearGradient>
<linearGradient id="paint1_linear_1_56" x1="12.4953" y1="0.416748" x2="32.049" y2="12.785" gradientUnits="userSpaceOnUse">
<stop stop-color="#FF5353"/>
<stop offset="1" stop-color="#E91E1E"/>
</linearGradient>
</defs>
</svg>
