<svg width="27" height="18" viewBox="0 0 27 18" fill="none" xmlns="http://www.w3.org/2000/svg">
<path d="M26.6406 1.58514V8.83514C26.6406 9.19567 26.4974 9.54143 26.2425 9.79637C25.9875 10.0513 25.6418 10.1945 25.2812 10.1945C24.9207 10.1945 24.5749 10.0513 24.32 9.79637C24.0651 9.54143 23.9219 9.19567 23.9219 8.83514V4.8703L15.3691 13.423C15.2428 13.5498 15.0928 13.6503 14.9275 13.7189C14.7623 13.7875 14.5851 13.8229 14.4062 13.8229C14.2273 13.8229 14.0502 13.7875 13.8849 13.7189C13.7197 13.6503 13.5696 13.5498 13.4433 13.423L9.87498 9.85467L2.68162 17.048C2.4251 17.3012 2.07917 17.4432 1.71873 17.4432C1.35829 17.4432 1.01236 17.3012 0.75584 17.048C0.62911 16.9217 0.528557 16.7717 0.459946 16.6064C0.391336 16.4412 0.356018 16.2641 0.356018 16.0851C0.356018 15.9062 0.391336 15.7291 0.459946 15.5638C0.528557 15.3986 0.62911 15.2485 0.75584 15.1223L8.91209 6.966C9.03838 6.83927 9.18845 6.73872 9.35368 6.67011C9.51892 6.6015 9.69607 6.56618 9.87498 6.56618C10.0539 6.56618 10.231 6.6015 10.3963 6.67011C10.5615 6.73872 10.7116 6.83927 10.8379 6.966L14.4062 10.5344L21.9961 2.94452H18.0312C17.6707 2.94452 17.3249 2.8013 17.07 2.54637C16.8151 2.29144 16.6719 1.94567 16.6719 1.58514C16.6719 1.22462 16.8151 0.878853 17.07 0.623921C17.3249 0.368988 17.6707 0.225769 18.0312 0.225769H25.2812C25.6418 0.225769 25.9875 0.368988 26.2425 0.623921C26.4974 0.878853 26.6406 1.22462 26.6406 1.58514Z" fill="url(#paint0_linear_1_19)"/>
<defs>
<linearGradient id="paint0_linear_1_19" x1="13.4983" y1="0.225769" x2="28.8998" y2="15.1047" gradientUnits="userSpaceOnUse">
<stop stop-color="#FF5353"/>
<stop offset="1" stop-color="#E91E1E"/>
</linearGradient>
</defs>
</svg>
