<svg width="152" height="30" viewBox="0 0 152 30" fill="none" xmlns="http://www.w3.org/2000/svg">
<rect x="6.92307" y="8.46153" width="15.3846" height="14.6154" fill="#F6F6F6"/>
<path d="M15.7125 27.6H14.3812L11.25 24.375H6.61874L5.62499 23.4375V18.9L2.45624 15.675V14.3437L5.62499 11.1187V6.5625L6.61874 5.625H11.25L14.3812 2.41875H15.7125L18.9375 5.625H23.4937L24.4312 6.54375V11.1187L27.6375 14.3437V15.675L24.375 18.9V23.4375L23.4375 24.375H18.9375L15.7125 27.6ZM12.6187 19.65H13.95L21.0187 12.5812L19.6875 11.25L13.2937 17.6625L10.7062 15.075L9.37499 16.4062L12.6187 19.65Z" fill="url(#paint0_linear_1_145)"/>
<path d="M48.436 10.27L44.782 20H42.934L39.266 10.27H40.974L43.858 18.362L46.756 10.27H48.436ZM56.8407 15.954C56.8407 16.2433 56.822 16.5047 56.7847 16.738H50.8907C50.9374 17.354 51.166 17.8487 51.5767 18.222C51.9874 18.5953 52.4914 18.782 53.0887 18.782C53.9474 18.782 54.554 18.4227 54.9087 17.704H56.6307C56.3974 18.4133 55.9727 18.9967 55.3567 19.454C54.75 19.902 53.994 20.126 53.0887 20.126C52.3514 20.126 51.6887 19.9627 51.1007 19.636C50.522 19.3 50.0647 18.8333 49.7287 18.236C49.402 17.6293 49.2387 16.9293 49.2387 16.136C49.2387 15.3427 49.3974 14.6473 49.7147 14.05C50.0414 13.4433 50.494 12.9767 51.0727 12.65C51.6607 12.3233 52.3327 12.16 53.0887 12.16C53.8167 12.16 54.4654 12.3187 55.0347 12.636C55.604 12.9533 56.0474 13.4013 56.3647 13.98C56.682 14.5493 56.8407 15.2073 56.8407 15.954ZM55.1747 15.45C55.1654 14.862 54.9554 14.3907 54.5447 14.036C54.134 13.6813 53.6254 13.504 53.0187 13.504C52.468 13.504 51.9967 13.6813 51.6047 14.036C51.2127 14.3813 50.9794 14.8527 50.9047 15.45H55.1747ZM60.0073 13.406C60.2407 13.014 60.5487 12.7107 60.9313 12.496C61.3233 12.272 61.7853 12.16 62.3173 12.16V13.812H61.9113C61.286 13.812 60.81 13.9707 60.4833 14.288C60.166 14.6053 60.0073 15.156 60.0073 15.94V20H58.4113V12.286H60.0073V13.406ZM64.5964 11.264C64.307 11.264 64.0644 11.166 63.8684 10.97C63.6724 10.774 63.5744 10.5313 63.5744 10.242C63.5744 9.95267 63.6724 9.71 63.8684 9.514C64.0644 9.318 64.307 9.22 64.5964 9.22C64.8764 9.22 65.1144 9.318 65.3104 9.514C65.5064 9.71 65.6044 9.95267 65.6044 10.242C65.6044 10.5313 65.5064 10.774 65.3104 10.97C65.1144 11.166 64.8764 11.264 64.5964 11.264ZM65.3804 12.286V20H63.7844V12.286H65.3804ZM70.7098 13.588H69.2818V20H67.6718V13.588H66.7618V12.286H67.6718V11.74C67.6718 10.8533 67.9051 10.2093 68.3718 9.808C68.8478 9.39733 69.5898 9.192 70.5978 9.192V10.522C70.1124 10.522 69.7718 10.6153 69.5758 10.802C69.3798 10.9793 69.2818 11.292 69.2818 11.74V12.286H70.7098V13.588ZM72.9362 11.264C72.6469 11.264 72.4042 11.166 72.2082 10.97C72.0122 10.774 71.9142 10.5313 71.9142 10.242C71.9142 9.95267 72.0122 9.71 72.2082 9.514C72.4042 9.318 72.6469 9.22 72.9362 9.22C73.2162 9.22 73.4542 9.318 73.6502 9.514C73.8462 9.71 73.9442 9.95267 73.9442 10.242C73.9442 10.5313 73.8462 10.774 73.6502 10.97C73.4542 11.166 73.2162 11.264 72.9362 11.264ZM73.7202 12.286V20H72.1242V12.286H73.7202ZM82.8856 15.954C82.8856 16.2433 82.867 16.5047 82.8296 16.738H76.9356C76.9823 17.354 77.211 17.8487 77.6216 18.222C78.0323 18.5953 78.5363 18.782 79.1336 18.782C79.9923 18.782 80.599 18.4227 80.9536 17.704H82.6756C82.4423 18.4133 82.0176 18.9967 81.4016 19.454C80.795 19.902 80.039 20.126 79.1336 20.126C78.3963 20.126 77.7336 19.9627 77.1456 19.636C76.567 19.3 76.1096 18.8333 75.7736 18.236C75.447 17.6293 75.2836 16.9293 75.2836 16.136C75.2836 15.3427 75.4423 14.6473 75.7596 14.05C76.0863 13.4433 76.539 12.9767 77.1176 12.65C77.7056 12.3233 78.3776 12.16 79.1336 12.16C79.8616 12.16 80.5103 12.3187 81.0796 12.636C81.649 12.9533 82.0923 13.4013 82.4096 13.98C82.727 14.5493 82.8856 15.2073 82.8856 15.954ZM81.2196 15.45C81.2103 14.862 81.0003 14.3907 80.5896 14.036C80.179 13.6813 79.6703 13.504 79.0636 13.504C78.513 13.504 78.0416 13.6813 77.6496 14.036C77.2576 14.3813 77.0243 14.8527 76.9496 15.45H81.2196ZM83.9243 16.108C83.9243 15.3333 84.0829 14.6473 84.4003 14.05C84.7269 13.4527 85.1656 12.9907 85.7163 12.664C86.2763 12.328 86.8969 12.16 87.5783 12.16C88.0823 12.16 88.5769 12.272 89.0623 12.496C89.5569 12.7107 89.9489 13 90.2383 13.364V9.64H91.8483V20H90.2383V18.838C89.9769 19.2113 89.6129 19.5193 89.1463 19.762C88.6889 20.0047 88.1616 20.126 87.5643 20.126C86.8923 20.126 86.2763 19.958 85.7163 19.622C85.1656 19.2767 84.7269 18.8007 84.4003 18.194C84.0829 17.578 83.9243 16.8827 83.9243 16.108ZM90.2383 16.136C90.2383 15.604 90.1263 15.142 89.9023 14.75C89.6876 14.358 89.4029 14.0593 89.0483 13.854C88.6936 13.6487 88.3109 13.546 87.9003 13.546C87.4896 13.546 87.1069 13.6487 86.7523 13.854C86.3976 14.05 86.1083 14.344 85.8843 14.736C85.6696 15.1187 85.5623 15.576 85.5623 16.108C85.5623 16.64 85.6696 17.1067 85.8843 17.508C86.1083 17.9093 86.3976 18.2173 86.7523 18.432C87.1163 18.6373 87.4989 18.74 87.9003 18.74C88.3109 18.74 88.6936 18.6373 89.0483 18.432C89.4029 18.2267 89.6876 17.928 89.9023 17.536C90.1263 17.1347 90.2383 16.668 90.2383 16.136ZM103.447 18.012H99.3733L98.6733 20H97.0073L100.493 10.256H102.341L105.827 20H104.147L103.447 18.012ZM102.999 16.71L101.417 12.188L99.8213 16.71H102.999ZM108.939 13.406C109.172 13.014 109.48 12.7107 109.863 12.496C110.255 12.272 110.717 12.16 111.249 12.16V13.812H110.843C110.218 13.812 109.742 13.9707 109.415 14.288C109.098 14.6053 108.939 15.156 108.939 15.94V20H107.343V12.286H108.939V13.406ZM114.578 13.588V17.858C114.578 18.1473 114.643 18.3573 114.774 18.488C114.914 18.6093 115.147 18.67 115.474 18.67H116.454V20H115.194C114.475 20 113.925 19.832 113.542 19.496C113.159 19.16 112.968 18.614 112.968 17.858V13.588H112.058V12.286H112.968V10.368H114.578V12.286H116.454V13.588H114.578ZM118.737 11.264C118.448 11.264 118.205 11.166 118.009 10.97C117.813 10.774 117.715 10.5313 117.715 10.242C117.715 9.95267 117.813 9.71 118.009 9.514C118.205 9.318 118.448 9.22 118.737 9.22C119.017 9.22 119.255 9.318 119.451 9.514C119.647 9.71 119.745 9.95267 119.745 10.242C119.745 10.5313 119.647 10.774 119.451 10.97C119.255 11.166 119.017 11.264 118.737 11.264ZM119.521 12.286V20H117.925V12.286H119.521ZM124.416 20.126C123.81 20.126 123.264 20.0187 122.778 19.804C122.302 19.58 121.924 19.2813 121.644 18.908C121.364 18.5253 121.215 18.1007 121.196 17.634H122.848C122.876 17.9607 123.03 18.236 123.31 18.46C123.6 18.6747 123.959 18.782 124.388 18.782C124.836 18.782 125.182 18.698 125.424 18.53C125.676 18.3527 125.802 18.1287 125.802 17.858C125.802 17.5687 125.662 17.354 125.382 17.214C125.112 17.074 124.678 16.92 124.08 16.752C123.502 16.5933 123.03 16.4393 122.666 16.29C122.302 16.1407 121.985 15.912 121.714 15.604C121.453 15.296 121.322 14.89 121.322 14.386C121.322 13.9753 121.444 13.602 121.686 13.266C121.929 12.9207 122.274 12.65 122.722 12.454C123.18 12.258 123.702 12.16 124.29 12.16C125.168 12.16 125.872 12.384 126.404 12.832C126.946 13.2707 127.235 13.8727 127.272 14.638H125.676C125.648 14.2927 125.508 14.0173 125.256 13.812C125.004 13.6067 124.664 13.504 124.234 13.504C123.814 13.504 123.492 13.5833 123.268 13.742C123.044 13.9007 122.932 14.1107 122.932 14.372C122.932 14.5773 123.007 14.75 123.156 14.89C123.306 15.03 123.488 15.142 123.702 15.226C123.917 15.3007 124.234 15.3987 124.654 15.52C125.214 15.6693 125.672 15.8233 126.026 15.982C126.39 16.1313 126.703 16.3553 126.964 16.654C127.226 16.9527 127.361 17.3493 127.37 17.844C127.37 18.2827 127.249 18.6747 127.006 19.02C126.764 19.3653 126.418 19.636 125.97 19.832C125.532 20.028 125.014 20.126 124.416 20.126ZM130.957 13.588V17.858C130.957 18.1473 131.022 18.3573 131.153 18.488C131.293 18.6093 131.526 18.67 131.853 18.67H132.833V20H131.573C130.854 20 130.304 19.832 129.921 19.496C129.538 19.16 129.347 18.614 129.347 17.858V13.588H128.437V12.286H129.347V10.368H130.957V12.286H132.833V13.588H130.957Z" fill="#CFC5C5"/>
<defs>
<linearGradient id="paint0_linear_1_145" x1="15.0469" y1="2.41875" x2="35.4157" y2="15.3084" gradientUnits="userSpaceOnUse">
<stop stop-color="#53E0FF"/>
<stop offset="1" stop-color="#1E94E9"/>
</linearGradient>
</defs>
</svg>
